<?xml version="1.0" encoding="UTF-8"?>
<svg version="1.1" viewBox="0 0 100 100" xmlns="http://www.w3.org/2000/svg">
 <g>
  <path d="m40.219 75.656 1.7305 2.6016c0.90625-0.60156 1.793-1.2617 2.6367-1.957l-1.9883-2.4102c-0.76172 0.625-1.5625 1.2227-2.3789 1.7656z"/>
  <path d="m51.18 62.004 2.9141 1.1289c0.39844-1.0234 0.74219-2.0742 1.0234-3.1172l-3.0156-0.82031c-0.25391 0.9375-0.56641 1.8828-0.92187 2.8086z"/>
  <path d="m32.176 79.375c-0.75391 0.21875-1.5234 0.40234-2.3125 0.55859l-0.60938 0.12109 0.61719 3.0625 0.60547-0.12109c0.86719-0.17188 1.7266-0.38281 2.5625-0.62109z"/>
  <path d="m23.129 81.277 3.0625-0.61328 0.61328 3.0625-3.0625 0.61328z"/>
  <path d="m63.605 56.707-7.8125-7.8125c-0.60938-0.60938-1.5977-0.60938-2.2109 0l-7.8125 7.8125 2.2109 2.2109 5.0273-5.0273c-0.0625 0.80469-0.14062 1.6133-0.26953 2.4102l3.082 0.50781c0.16797-1.0273 0.28125-2.0742 0.35156-3.1133l5.2266 5.2266zm-10.09-3.3242 1.1719-1.1719 1.3242 1.3242z"/>
  <path d="m46.418 24.543 3.582-3.582 3.582 3.582 2.2109-2.2109-3.582-3.582 3.582-3.582-2.2109-2.2109-3.582 3.582-3.582-3.582-2.2109 2.2109 3.582 3.582-3.582 3.582z"/>
  <path d="m80.793 57.355 3.582-3.582 3.582 3.582 2.2109-2.2109-3.582-3.582 3.582-3.582-2.2109-2.2109-3.582 3.582-3.582-3.582-2.2109 2.2109 3.582 3.582-3.582 3.582z"/>
  <path d="m94.664 24.73c2.4336-2.4336 3.7734-5.6641 3.7734-9.1055 0-7.7539-6.3086-14.062-14.062-14.062-4.6797 0-8.8203 2.3047-11.375 5.8281-7.0352-3.8008-14.949-5.8281-23-5.8281-26.711 0-48.438 21.727-48.438 48.438s21.727 48.438 48.438 48.438 48.438-21.727 48.438-48.438c0-8.0352-2.0195-15.945-5.8086-22.969 0.63672-0.79688 1.3086-1.5703 2.0352-2.3008zm-10.289-20.043c6.0312 0 10.938 4.9062 10.938 10.938 0 2.6055-1.0156 5.0547-2.8555 6.8984-3.9141 3.9141-6.6953 8.7773-8.082 14.117-1.3867-5.3398-4.1641-10.203-8.082-14.117-1.8398-1.8438-2.8555-4.293-2.8555-6.8984 0-6.0312 4.9062-10.938 10.938-10.938zm-34.375 90.625c-4.5078 0-9.1836-5.375-12.52-14.617 0.55078-0.25 1.1133-0.48047 1.6445-0.75781l-1.457-2.7656c-0.38281 0.19922-0.78516 0.35938-1.1797 0.54688-0.78125-2.5742-1.4609-5.3945-2.0195-8.4336 3.7305 0.51172 7.6719 0.84375 11.77 0.96875-0.47266 0.55859-0.94531 1.1172-1.4609 1.6406l2.2266 2.1953c0.76562-0.77734 1.5-1.6016 2.1836-2.4531l-1.6758-1.3438c0.82422 0.011719 1.6523 0.019531 2.4883 0.019531 5.457 0 10.672-0.36719 15.527-1.0312-2.957 16.098-9.3984 26.031-15.527 26.031zm2.1562-28.148c0.19531-0.35156 0.41406-0.68359 0.59766-1.0391l-2.7812-1.4219c-0.43359 0.84766-0.91406 1.6758-1.4219 2.4688-5.2383-0.0625-10.133-0.45312-14.609-1.1133-0.72266-4.8867-1.1289-10.27-1.1289-16.059s0.40625-11.172 1.1289-16.059c4.8867-0.72266 10.27-1.1289 16.059-1.1289 5.5781 0 10.988 0.41016 16.066 1.1641 0.71484 4.875 1.1211 10.246 1.1211 16.023 0 5.7891-0.40625 11.172-1.1289 16.059-4.2734 0.62891-8.9297 1.0195-13.902 1.1055zm-21.438-1.6367c-16.098-2.957-26.031-9.3984-26.031-15.527s9.9336-12.57 26.031-15.527c-0.66406 4.8555-1.0312 10.07-1.0312 15.527s0.36719 10.672 1.0312 15.527zm19.281-60.84c6.1328 0 12.578 9.9414 15.531 26.059-4.9453-0.68359-10.168-1.0586-15.531-1.0586-5.457 0-10.672 0.36719-15.527 1.0312 2.957-16.098 9.3984-26.031 15.527-26.031zm19.285 29.824c4.4141 0.8125 8.5078 1.9023 12.137 3.2617 0.050781 0.20703 0.11328 0.41016 0.16016 0.62109l1.2656 5.6953c0.16016 0.71484 0.79297 1.2227 1.5273 1.2227s1.3672-0.50781 1.5273-1.2227l0.875-3.9375c5.5039 2.9336 8.5352 6.3867 8.5352 9.8477 0 6.1289-9.9336 12.57-26.031 15.527 0.66406-4.8555 1.0312-10.07 1.0312-15.527 0-5.4414-0.36328-10.641-1.0273-15.488zm4.8008-9.7812c2.668 2.668 4.7344 5.832 6.1328 9.2969-3.5-1.1523-7.3438-2.082-11.43-2.7852-2-11.66-5.832-20.902-10.691-25.809 4.6641 0.84375 9.1719 2.418 13.352 4.668-0.73047 1.6953-1.1367 3.5625-1.1367 5.5234 0 3.4414 1.3398 6.6719 3.7734 9.1055zm-32.172-19.305c-4.8594 4.8984-8.6914 14.137-10.695 25.797-11.656 2.0039-20.895 5.8359-25.797 10.695 3.3516-18.516 17.98-33.145 36.492-36.492zm-36.488 52.66c4.8984 4.8594 14.137 8.6914 25.797 10.695 2.0039 11.656 5.8359 20.895 10.695 25.797-18.516-3.3516-33.145-17.98-36.492-36.492zm52.66 36.488c4.8594-4.8984 8.6914-14.137 10.695-25.797 11.656-2.0039 20.895-5.8359 25.797-10.695-3.3516 18.516-17.98 33.145-36.492 36.492zm36.469-52.75c-1.7617-1.7305-4.1172-3.3438-7.0273-4.8203 0.69531-2.5117 1.7344-4.8984 3.082-7.1055 1.8672 3.7734 3.1875 7.7891 3.9453 11.926z"/>
  <path d="m84.375 23.438c4.3086 0 7.8125-3.5039 7.8125-7.8125s-3.5039-7.8125-7.8125-7.8125-7.8125 3.5039-7.8125 7.8125 3.5039 7.8125 7.8125 7.8125zm0-12.5c2.5859 0 4.6875 2.1016 4.6875 4.6875s-2.1016 4.6875-4.6875 4.6875-4.6875-2.1016-4.6875-4.6875 2.1016-4.6875 4.6875-4.6875z"/>
 </g>
</svg>
